<svg width="19" height="19" viewBox="0 0 19 19" fill="none" xmlns="http://www.w3.org/2000/svg">
<path d="M7.18264 17.4092C7.6094 17.4092 7.95537 17.0633 7.95537 16.6365C7.95537 16.2097 7.6094 15.8638 7.18264 15.8638C6.75587 15.8638 6.40991 16.2097 6.40991 16.6365C6.40991 17.0633 6.75587 17.4092 7.18264 17.4092Z" stroke="black" stroke-width="2" stroke-linecap="round" stroke-linejoin="round"/>
<path d="M15.6815 17.4092C16.1083 17.4092 16.4543 17.0633 16.4543 16.6365C16.4543 16.2097 16.1083 15.8638 15.6815 15.8638C15.2548 15.8638 14.9088 16.2097 14.9088 16.6365C14.9088 17.0633 15.2548 17.4092 15.6815 17.4092Z" stroke="black" stroke-width="2" stroke-linecap="round" stroke-linejoin="round"/>
<path d="M1 1.18188H4.09091L6.16182 11.5287C6.23248 11.8845 6.42602 12.204 6.70856 12.4315C6.9911 12.6589 7.34463 12.7797 7.70727 12.7728H15.2182C15.5808 12.7797 15.9344 12.6589 16.2169 12.4315C16.4994 12.204 16.693 11.8845 16.7636 11.5287L18 5.04552H4.86364" stroke="black" stroke-width="2" stroke-linecap="round" stroke-linejoin="round"/>
</svg>
